<?xml version="1.0" encoding="iso-8859-1"?>
<!-- Generator: Adobe Illustrator 18.1.1, SVG Export Plug-In . SVG Version: 6.00 Build 0)  -->
<svg version="1.1" id="Capa_1" xmlns="http://www.w3.org/2000/svg" xmlns:xlink="http://www.w3.org/1999/xlink" x="0px" y="0px"
	 viewBox="0 0 565.016 565.016" style="enable-background:new 0 0 565.016 565.016;" xml:space="preserve">
<g>
	<g>
		<path style="fill:#010002;" d="M297.188,241.571l-1.836-67.32c-0.408-10.608,3.162-19.38,10.71-26.316
			s16.422-10.404,26.622-10.404h1.227c10.197,0.408,18.867,4.284,26.01,11.628c7.14,7.344,10.506,16.32,10.098,26.928l-1.836,64.26
			l-1.836,82.62c0,4.896-0.612,10.2-1.836,15.912s-3.06,10.914-5.508,15.606c-2.448,4.689-5.712,8.565-9.792,11.628
			c-4.08,3.06-9.384,4.59-15.912,4.59c-13.056-0.408-21.828-5.406-26.316-14.994c-4.485-9.588-6.936-20.91-7.344-33.966v-6.12
			l-1.224-30.6L297.188,241.571z M201.103,241.571l-6.12-64.872c-0.816-10.608,2.346-19.584,9.486-26.928
			c7.14-7.344,16.014-11.22,26.622-11.628c0.408-0.408,0.816-0.612,1.224-0.612c10.2,0,18.87,3.468,26.01,10.404
			c7.14,6.936,10.914,15.504,11.322,25.704l2.448,67.932l1.836,45.289l0.612,29.376c0,0.813,0.102,1.632,0.306,2.445
			c0.204,0.816,0.306,1.632,0.306,2.448c0,4.896-0.306,10.2-0.918,15.912s-2.04,10.914-4.284,15.604
			c-2.244,4.692-5.304,8.671-9.18,11.937c-3.876,3.264-9.078,5.1-15.606,5.508c-0.816,0-1.326,0.102-1.53,0.306
			s-0.714,0.309-1.53,0.309c-12.648,0-21.216-4.692-25.704-14.076s-7.14-19.992-7.956-31.824c0-0.813-0.204-1.632-0.612-2.448
			v-0.609L201.103,241.571z M103.795,210.359c-0.816-4.896-0.612-9.69,0.612-14.382s3.264-8.874,6.12-12.546
			s6.324-6.732,10.404-9.18s8.364-4.08,12.852-4.896h3.672c8.568,0,16.014,3.162,22.338,9.486s10.098,14.382,11.322,24.174
			l3.672,38.556l8.568,82.008v1.224v0.612v1.224c1.224,10.608,0.408,20.096-2.448,28.458c-2.856,8.364-10.2,13.362-22.032,14.994
			c-0.816,0-1.53,0.104-2.142,0.307s-1.326,0.308-2.142,0.308c-5.712,0-10.404-1.326-14.076-3.979
			c-3.672-2.649-6.732-6.12-9.18-10.401c-2.448-4.284-4.284-8.874-5.508-13.771c-1.224-4.896-2.244-9.588-3.06-14.076
			l-17.748-110.771L103.795,210.359z M518.12,207.911c11.832-2.04,21.624-0.51,29.376,4.59s12.954,11.628,15.604,19.584
			c2.652,7.956,2.55,16.218-0.306,24.786c-2.856,8.568-8.772,15.504-17.748,20.808c-20.811,11.832-38.658,26.622-53.55,44.37
			c-14.895,17.748-28.356,36.414-40.395,55.998s-22.95,39.066-32.742,58.446s-19.786,36.414-29.985,51.102
			c-4.488,9.384-11.118,17.34-19.893,23.868c-8.771,6.528-21.521,9.792-38.25,9.792h-202.57c-17.136,0-30.702-6.63-40.698-19.89
			c-9.996-13.263-16.626-29.07-19.89-47.433c-2.448-13.056-4.896-27.336-7.344-42.84c-2.448-15.504-4.998-31.62-7.65-48.348
			c-2.652-16.729-5.406-33.561-8.262-50.49s-5.712-33.15-8.568-48.654L0.979,81.838c-0.816-3.264-1.122-6.834-0.918-10.71
			s0.918-7.65,2.142-11.322c1.224-3.672,3.366-6.834,6.426-9.486s7.038-4.59,11.934-5.814c10.608-2.04,18.564,0.102,23.868,6.426
			c5.304,6.324,8.976,12.75,11.016,19.278l30.6,105.876c-2.856,5.304-4.998,11.016-6.426,17.136s-1.734,12.648-0.918,19.584v0.612
			v1.224l19.584,116.894c3.264,19.584,9.588,35.088,18.972,46.512s21.828,17.136,37.332,17.136h7.344
			c4.488-0.813,10.302-2.649,17.442-5.508c7.14-2.854,13.362-7.956,18.666-15.3c6.528,8.565,13.872,14.178,22.032,16.83
			c8.16,2.649,15.504,3.978,22.032,3.978h4.284c7.752-0.408,15.3-2.446,22.644-6.12c7.344-3.672,13.668-9.588,18.973-17.748
			c8.976,15.912,23.868,23.868,44.676,23.868c6.938,0,13.771-1.224,20.502-3.672c6.732-2.448,12.854-6.527,18.36-12.24
			c5.508-5.712,10.098-13.155,13.77-22.338c3.672-9.18,5.712-20.298,6.12-33.354l1.227-47.736c4.485,2.04,9.588,2.04,15.3,0
			s12.24-6.528,19.584-13.464c17.136-16.32,33.558-28.968,49.266-37.944C492.519,215.459,506.288,209.951,518.12,207.911z"/>
	</g>
</g>
<g>
</g>
<g>
</g>
<g>
</g>
<g>
</g>
<g>
</g>
<g>
</g>
<g>
</g>
<g>
</g>
<g>
</g>
<g>
</g>
<g>
</g>
<g>
</g>
<g>
</g>
<g>
</g>
<g>
</g>
</svg>
